<svg xmlns="http://www.w3.org/2000/svg" viewBox="0 0 513 371"><defs><style>.cls-1{fill:#454545;}.cls-2{fill:#271ca9;}.cls-3{fill:#42882e;}.cls-4{fill:#93322c;}</style></defs><title>Artboard 3</title><g id="Layer_2" data-name="Layer 2"><path class="cls-1" d="M28.38,303.93c0-20.83,0-41.67,0-62.51a49.09,49.09,0,0,0-5.64-23.34c-4.26-7.93-10.8-12.79-20-13.3-2.22-.12-2.82-.79-2.79-3,.12-9.19.08-18.39,0-27.58,0-1.54.13-2.58,2.06-2.66,13.11-.53,20.34-9.73,23.94-21.1,2.33-7.37,2.53-14.92,2.53-22.5q0-59.86-.05-119.71C28.43,5.74,29,5,31.58,5c22,.12,44,.06,66.05.06a12.85,12.85,0,0,0,1.52,0c2.38-.24,3.1.71,3.07,3.16q-.23,16.32,0,32.65c0,2.33-.7,2.77-2.84,2.74-9.87-.11-19.74,0-29.61-.09-2.13,0-2.66.61-2.65,2.69q.09,51.26,0,102.5A46.23,46.23,0,0,1,61.45,172a45.08,45.08,0,0,1-13.61,14.67c-1.91,1.35-1.7,1.95.07,3.12A41.89,41.89,0,0,1,62,205.3a45.31,45.31,0,0,1,5.12,21.64q0,51.12,0,102.25c0,3.56,0,3.56,3.54,3.56,9.7,0,19.4.05,29.1,0,1.91,0,2.42.53,2.4,2.42-.08,10.72,0,21.43,0,32.14,0,3.92,0,3.94-4.05,4H36.6c-2.1,0-4.22-.05-6.32,0-1.34.05-1.82-.51-1.8-1.77,0-2.11,0-4.22,0-6.33V303.93Z"/><path class="cls-1" d="M483.9,71.66c0,21-.11,42,.06,63a46.72,46.72,0,0,0,7.29,25.65A23,23,0,0,0,509,171c3.5.36,3.51.29,3.51,3.9,0,8.69-.08,17.38,0,26.07,0,2.44-.82,3.16-3.18,3.35-9.83.77-16.4,6.18-20.52,14.91-3.71,7.86-5,16.18-5,24.8q0,61.49,0,123c0,4.39,0,3.62-3.7,3.63q-33,0-66.06,0c-3.92,0-3.92,0-3.92-3.85,0-10.55.06-21.09-.05-31.64,0-2.34.5-3.21,3.06-3.17,9.61.16,19.23.07,28.85.07,3.25,0,3.26,0,3.26-3.38,0-33.83.05-67.66,0-101.49,0-8.35,1.59-16.27,5.66-23.54a41.07,41.07,0,0,1,13.54-14.35c1.5-1,2.15-1.48.14-2.93-13-9.38-19.4-22.1-19.34-38.24.12-33.91,0-67.82.09-101.73,0-2.51-.55-3.33-3.19-3.29-9.87.17-19.74,0-29.61.11-1.94,0-2.43-.61-2.42-2.45q.11-16.7,0-33.41c0-1.94.63-2.8,2.58-2.69.83,0,1.68,0,2.52,0,21.85,0,43.7,0,65.55-.06,2.39,0,3.13.58,3.12,3.06-.1,21.35-.06,42.69-.06,64Z"/><path class="cls-2" d="M289.89,97.39c11.14,0,22.27.15,33.4.07a159,159,0,0,1,31.18,2.76c10.92,2.11,21,6,29.16,13.93,6,5.86,9.51,13,11.26,21.24a55.52,55.52,0,0,1,1,19.31c-1.41,10.24-5.73,18.86-13.61,25.64a37.5,37.5,0,0,1-11.93,7.34c-.35.12-.61.52-1.09.94,3.81,1.68,7.59,2.93,11.06,4.89,11,6.21,17,15.83,19.53,28s.89,24-3.52,35.44a40.25,40.25,0,0,1-10.23,14.85A62.17,62.17,0,0,1,358.4,286.6c-9.24,2.37-18.66,2.73-28.06,3-11.63.32-23.28.06-34.92.07-1,0-2,.14-3,.22-5.94-.39-11.89,0-17.84-.29-2.51-.13-2.79-1-2.78-2.89,0-5.77,0-11.55-.06-17.32.06-.75.18-1.51.18-2.26q0-30.62,0-61.25c0-.83-.17-1.67-.25-2.5,1-2.12.13-4.27.13-6.41q0-7.35-.1-14.71c.08-1.17.21-2.34.21-3.51,0-9.26,0-18.51,0-27.77a21.09,21.09,0,0,0-.35-4.76,43.89,43.89,0,0,0,.29-8.5c-.13-10.87,0-21.74-.08-32.61,0-1.5.46-2.94.16-4.5-.5-2.53.1-3.08,2.8-3.11C279.79,97.44,284.84,97.42,289.89,97.39Zm3,44.27c-1,2.08-.38,4.27-.38,6.41,0,9.7,0,19.4,0,29.1,0,1.58.11,2.81,2.24,2.78,6.32-.07,12.65,0,19,0,.59,0,1.2.06,1.64-.47a80.7,80.7,0,0,0,13.37.24c9.77-.28,19.58-.59,28.86-4.21,5-2,9.42-4.83,12.41-9.48,5.15-8,5.48-16.8,4.08-25.79a20.85,20.85,0,0,0-7.51-13.34c-6.76-5.44-14.87-8-23.25-9-16.28-1.92-32.68-.81-49-1-1.13,0-1.74.33-1.71,1.56C292.74,126.16,292.17,133.92,292.88,141.66Zm-.32,92.76q0,16.71,0,33.4c0,1.78.29,2.77,2.49,2.75,12.39-.1,24.79,0,37.19-.09,9.38-.07,18.67-.83,27.43-4.7,7-3.09,12.93-7.56,16-14.68,4.12-9.64,5-19.64,1.68-29.83a26.5,26.5,0,0,0-14.05-16c-8-4-16.53-5.58-25.31-6.17-14.32-1-28.66-.22-43-.5-1.87,0-2.46.5-2.44,2.42C292.6,212.16,292.55,223.29,292.56,234.42Z"/><path class="cls-3" d="M271.69,182.25q.06,7.35.1,14.71c0,2.14.88,4.29-.13,6.41a116.49,116.49,0,0,0-18.92-5.22c-12.12-2.2-24.2-2.86-36.41-.66-13.23,2.38-25,7.63-34.92,16.79a64.57,64.57,0,0,0-14,18.61A75.81,75.81,0,0,0,160,257.4c-2.47,19.13-1.44,37.82,5.41,56A55.31,55.31,0,0,0,178,333c8.32,8.4,18.67,13.31,30,16.15a103.61,103.61,0,0,0,23.8,2.7c12.54.17,24.88-1,36.91-4.81,2.21-.71,2.85-1.68,2.84-3.89-.08-16.95-.05-33.91-.05-50.86,0-3.26,0-3.27-3.36-3.27-15.78,0-31.55,0-47.32.05-2.22,0-2.91-.58-2.83-2.84.18-4.89.11-9.79,0-14.68,0-1.53.48-2.15,2-2.09,2.11.07,4.21.06,6.32.05l45.29-.12c0,5.77.07,11.55.06,17.32,0,1.93.27,2.76,2.78,2.89,5.95.32,11.9-.1,17.84.29q0,22.13-.1,44.26c0,7.16-.1,14.33.07,21.49a3.35,3.35,0,0,1-2.48,3.74A172.54,172.54,0,0,1,260.14,368a177.15,177.15,0,0,1-40.54,2.32,94.46,94.46,0,0,1-34.27-7.84A75.59,75.59,0,0,1,154.28,337c-7.49-10.56-11.94-22.55-14.41-35.24a136.86,136.86,0,0,1-1.64-42.26c1.52-13,5-25.43,11.4-36.9,7.27-13,17-23.7,29.94-31.35a53.68,53.68,0,0,1,8.93-4.64,7.45,7.45,0,0,0,2.24-1.58,10.43,10.43,0,0,0,2.2-.37,122.83,122.83,0,0,1,13.49-4.41c1.73-.47,3.72-.14,5.1-1.68a6.47,6.47,0,0,0,3.24-.06c12.72-2,25.45-1.71,38.19-.1A172.64,172.64,0,0,1,271.69,182.25Z"/><path class="cls-4" d="M211.53,178.59c-1.38,1.54-3.37,1.21-5.1,1.68a122.83,122.83,0,0,0-13.49,4.41,10.43,10.43,0,0,1-2.2.37c-.07-.83-.21-1.66-.21-2.5q0-88.92,0-177.85c0-5.85.16-4.66,4.58-4.66,17.37,0,34.75-.25,52.11.17,13.23.32,26.2,2.7,38,9.09,11.5,6.24,18.78,16,22.22,28.61,2.39,8.8,2.41,17.74,1.23,26.6A47.58,47.58,0,0,1,291,96.33c-.39.32-.72.7-1.09,1.06-5.05,0-10.1,0-15.16.1-2.7,0-3.3.58-2.8,3.11.3,1.56-.17,3-.16,4.5.06,10.87,0,21.74.08,32.61a43.89,43.89,0,0,1-.29,8.5c-6.35-10.68-12.72-21.34-19-32a4.47,4.47,0,0,0-4.39-2.61c-11,.13-22.09.06-33.14.06-3.44,0-3.44,0-3.44,3.46Q211.54,146.84,211.53,178.59Zm0-122.63c0,11.39.05,22.78,0,34.16,0,2,.5,2.78,2.67,2.76,9.19-.12,18.39,0,27.58-.08s18.49-.94,27.13-4.88c9.15-4.18,15.14-11,17.54-20.81A51.22,51.22,0,0,0,286.73,45c-1.85-9.64-7.28-16.49-16.19-20.45-7.41-3.29-15.35-4.3-23.38-4.78-10.87-.64-21.75-.3-32.63-.47-2.32,0-3,.62-3,3C211.63,33.53,211.57,44.75,211.56,56Z"/><path class="cls-4" d="M292.88,141.66q5.61,9.24,11.22,18.49,5.38,8.94,10.72,17.91a7.83,7.83,0,0,1,.51,1.38c-.44.53-1.05.47-1.64.47-6.32,0-12.65,0-19,0-2.13,0-2.25-1.2-2.24-2.78,0-9.7,0-19.4,0-29.1C292.5,145.93,291.85,143.74,292.88,141.66Z"/></g></svg>
